{
  "asset": {
    "version": "2.0",
    "generator": "Created using the official Cinema 4D glTF Exporter 1.000x284978"
  },
  "scenes": [
    {
      "nodes": [0]
    }
  ],
  "nodes": [
    {
      "name": "Smiley",
      "children": [1, 2, 4]
    },
    {
      "name": "Head",
      "mesh": 0
    },
    {
      "name": "Smile",
      "translation": [
        0.10509632527828217, -57.857330322265628, 56.91822052001953
      ],
      "rotation": [0.0, 0.0, 0.004049557726830244, -0.999991774559021],
      "scale": [1.0, 1.0, 1.0],
      "children": [3]
    },
    {
      "name": "Smile",
      "mesh": 1
    },
    {
      "name": "Eyes",
      "children": [5, 6]
    },
    {
      "name": "Capsule",
      "translation": [30.0, 13.501872062683106, 51.76768493652344],
      "rotation": [0.0, 0.0, 0.0, -1.0],
      "scale": [1.0, 1.0, 1.0],
      "mesh": 2
    },
    {
      "name": "Capsule.1",
      "translation": [-30.0, 13.501872062683106, 51.76768493652344],
      "rotation": [0.0, 0.0, 0.0, -1.0],
      "scale": [1.0, 1.0, 1.0],
      "mesh": 3
    }
  ],
  "meshes": [
    {
      "name": "Head",
      "primitives": [
        {
          "attributes": {
            "POSITION": 1,
            "NORMAL": 2,
            "TEXCOORD_0": 3
          },
          "indices": 0,
          "material": 0
        }
      ]
    },
    {
      "name": "Smile",
      "primitives": [
        {
          "attributes": {
            "POSITION": 5,
            "NORMAL": 6,
            "TEXCOORD_0": 7
          },
          "indices": 4,
          "material": 1
        }
      ]
    },
    {
      "name": "Capsule",
      "primitives": [
        {
          "attributes": {
            "POSITION": 9,
            "NORMAL": 10,
            "TEXCOORD_0": 11
          },
          "indices": 8,
          "material": 1
        }
      ]
    },
    {
      "name": "Capsule.1",
      "primitives": [
        {
          "attributes": {
            "POSITION": 13,
            "NORMAL": 14,
            "TEXCOORD_0": 15
          },
          "indices": 12,
          "material": 1
        }
      ]
    }
  ],
  "accessors": [
    {
      "bufferView": 0,
      "type": "SCALAR",
      "componentType": 5123,
      "count": 7524,
      "byteOffset": 0,
      "min": [0],
      "max": [1461]
    },
    {
      "bufferView": 1,
      "type": "VEC3",
      "componentType": 5126,
      "count": 1462,
      "byteOffset": 0,
      "min": [-75.69854736328125, -75.69854736328125, -56.402164459228519],
      "max": [75.69854736328125, 75.69854736328125, 56.402164459228519]
    },
    {
      "bufferView": 1,
      "type": "VEC3",
      "componentType": 5126,
      "count": 1462,
      "byteOffset": 12,
      "min": [-0.9989308714866638, -0.9987516403198242, -0.9989308714866638],
      "max": [0.9989308714866638, 0.9987516403198242, 0.9989308714866638]
    },
    {
      "bufferView": 1,
      "type": "VEC2",
      "componentType": 5126,
      "count": 1462,
      "byteOffset": 24,
      "min": [0.0, 0.0],
      "max": [1.0, 1.0]
    },
    {
      "bufferView": 2,
      "type": "SCALAR",
      "componentType": 5123,
      "count": 9192,
      "byteOffset": 0,
      "min": [0],
      "max": [1653]
    },
    {
      "bufferView": 3,
      "type": "VEC3",
      "componentType": 5126,
      "count": 1654,
      "byteOffset": 0,
      "min": [-36.23490905761719, 23.774953842163087, -1.552941083908081],
      "max": [36.790367126464847, 41.60742950439453, 1.552941083908081]
    },
    {
      "bufferView": 3,
      "type": "VEC3",
      "componentType": 5126,
      "count": 1654,
      "byteOffset": 12,
      "min": [-0.9763972759246826, -0.9999672174453735, -0.9999998807907105],
      "max": [0.9728201627731323, 0.9999671578407288, 0.9999998807907105]
    },
    {
      "bufferView": 3,
      "type": "VEC2",
      "componentType": 5126,
      "count": 1654,
      "byteOffset": 24,
      "min": [0.0, 0.0],
      "max": [1.0, 1.0]
    },
    {
      "bufferView": 4,
      "type": "SCALAR",
      "componentType": 5123,
      "count": 1056,
      "byteOffset": 0,
      "min": [0],
      "max": [218]
    },
    {
      "bufferView": 5,
      "type": "VEC3",
      "componentType": 5126,
      "count": 219,
      "byteOffset": 0,
      "min": [-8.825458526611329, -17.650917053222658, -8.825458526611329],
      "max": [8.825458526611329, 17.650917053222658, 8.825458526611329]
    },
    {
      "bufferView": 5,
      "type": "VEC3",
      "componentType": 5126,
      "count": 219,
      "byteOffset": 12,
      "min": [-1.0, -1.0, -1.0],
      "max": [1.0, 1.0, 1.0]
    },
    {
      "bufferView": 5,
      "type": "VEC2",
      "componentType": 5126,
      "count": 219,
      "byteOffset": 24,
      "min": [0.0, 0.0],
      "max": [1.0, 1.0]
    },
    {
      "bufferView": 6,
      "type": "SCALAR",
      "componentType": 5123,
      "count": 1056,
      "byteOffset": 0,
      "min": [0],
      "max": [218]
    },
    {
      "bufferView": 7,
      "type": "VEC3",
      "componentType": 5126,
      "count": 219,
      "byteOffset": 0,
      "min": [-8.825458526611329, -17.650917053222658, -8.825458526611329],
      "max": [8.825458526611329, 17.650917053222658, 8.825458526611329]
    },
    {
      "bufferView": 7,
      "type": "VEC3",
      "componentType": 5126,
      "count": 219,
      "byteOffset": 12,
      "min": [-1.0, -1.0, -1.0],
      "max": [1.0, 1.0, 1.0]
    },
    {
      "bufferView": 7,
      "type": "VEC2",
      "componentType": 5126,
      "count": 219,
      "byteOffset": 24,
      "min": [0.0, 0.0],
      "max": [1.0, 1.0]
    }
  ],
  "bufferViews": [
    {
      "buffer": 0,
      "byteOffset": 0,
      "byteLength": 15048,
      "target": 34963
    },
    {
      "buffer": 0,
      "byteOffset": 15048,
      "byteLength": 46784,
      "target": 34962,
      "byteStride": 32
    },
    {
      "buffer": 1,
      "byteOffset": 0,
      "byteLength": 18384,
      "target": 34963
    },
    {
      "buffer": 1,
      "byteOffset": 18384,
      "byteLength": 52928,
      "target": 34962,
      "byteStride": 32
    },
    {
      "buffer": 2,
      "byteOffset": 0,
      "byteLength": 2112,
      "target": 34963
    },
    {
      "buffer": 2,
      "byteOffset": 2112,
      "byteLength": 7008,
      "target": 34962,
      "byteStride": 32
    },
    {
      "buffer": 3,
      "byteOffset": 0,
      "byteLength": 2112,
      "target": 34963
    },
    {
      "buffer": 3,
      "byteOffset": 2112,
      "byteLength": 7008,
      "target": 34962,
      "byteStride": 32
    }
  ],
  "buffers": [
    {
      "uri": "data:application/octet-stream;base64,",
      "byteLength": 61832
    },
    {
      "uri": "data:application/octet-stream;base64,",
      "byteLength": 71312
    },
    {
      "uri": "data:application/octet-stream;base64,",
      "byteLength": 9120
    },
    {
      "uri": "data:application/octet-stream;base64,",
      "byteLength": 9120
    }
  ],
  "materials": [
    {
      "pbrMetallicRoughness": {
        "baseColorFactor": [0.8, 0.8, 0.8, 1.0],
        "metallicFactor": 0.0,
        "roughnessFactor": 0.5
      },
      "emissiveFactor": [0.0, 0.0, 0.0],
      "alphaMode": "OPAQUE",
      "doubleSided": false,
      "name": "Mat"
    },
    {
      "pbrMetallicRoughness": {
        "baseColorFactor": [0.0, 0.0, 0.0, 1.0],
        "metallicFactor": 0.0,
        "roughnessFactor": 0.5
      },
      "emissiveFactor": [0.0, 0.0, 0.0],
      "alphaMode": "OPAQUE",
      "doubleSided": false,
      "name": "Mat.1"
    }
  ]
}
